<svg width="400" height="40" viewBox="0 0 400 40" fill="none" xmlns="http://www.w3.org/2000/svg">
<path fill-rule="evenodd" clip-rule="evenodd" d="M286.161 0.127057C286.03 0.261061 280.472 0.446642 273.808 0.539674C267.145 0.632224 259.366 0.831784 256.521 0.982177C248.908 1.38467 247.112 1.3972 246.567 1.05159C246.296 0.879985 245.964 0.85444 245.827 0.99471C245.507 1.32297 240.551 1.63533 231.226 1.9149C227.139 2.03782 223.629 2.24269 223.427 2.37091C223.225 2.49913 221.175 2.74448 218.871 2.91608C216.568 3.08768 214.616 3.41064 214.534 3.63382C214.452 3.857 213.923 3.87098 213.359 3.66468C212.442 3.33015 211.231 3.29496 208.704 3.53067C208.14 3.58321 207.99 3.8599 208.207 4.44942C208.498 5.23513 208.461 5.23368 207.668 4.42773C206.969 3.71722 206.344 3.61599 204.169 3.8599C202.712 4.0233 200.516 4.1308 199.287 4.0985C197.909 4.06235 197.054 4.24841 197.054 4.58439C197.054 4.94928 196.551 5.01243 195.527 4.77672C194.686 4.58294 193.787 4.44653 193.529 4.474C193.27 4.501 191.472 4.56655 189.533 4.61957C187.594 4.6726 185.814 4.82685 185.578 4.96133C185.057 5.25826 183.619 5.40769 177.781 5.77066C175.324 5.92347 172.68 6.13556 171.904 6.24113C168.525 6.70291 164.602 7.0466 161.327 7.16759C159.388 7.23941 156.638 7.54935 155.216 7.85593C152.573 8.42617 146.851 8.95736 143.974 8.89952C143.091 8.88169 142.195 9.14777 141.983 9.49049C141.67 9.9971 141.596 9.99518 141.59 9.48133C141.584 8.88843 140.481 8.91253 136.882 9.58304C134.179 10.0872 131.586 10.4386 129.361 10.603C127.939 10.7086 125.612 10.9139 124.19 11.06C122.768 11.2065 120.229 11.4196 118.549 11.5338C116.868 11.6481 115.493 11.7715 115.493 11.8076C115.493 11.8785 114.778 12.0684 112.971 12.4781C112.359 12.6169 110.244 12.8686 108.27 13.0377C104.402 13.3689 102.8 13.5588 102.8 13.6861C102.8 13.7304 101.531 13.8668 99.9798 13.9893C95.4725 14.3455 93.5691 14.5788 90.813 15.1119C89.3909 15.3872 87.0639 15.7424 85.6419 15.9015C84.2199 16.061 82.2243 16.2842 81.207 16.398C80.1902 16.5117 79.1527 16.8154 78.9022 17.0723C78.6079 17.3741 78.1387 17.3707 77.5784 17.0632C77.011 16.7518 76.4121 16.7503 75.8512 17.0579C75.3788 17.3172 73.8449 17.5761 72.4431 17.6329C71.0408 17.6898 69.3649 17.94 68.7185 18.1882C68.0721 18.437 66.8029 18.6987 65.8979 18.7705C62.0281 19.0761 58.5729 19.6498 58.0657 20.0706C57.7234 20.355 57.4141 20.3487 57.2369 20.0537C57.0531 19.7495 56.4175 19.7486 55.4322 20.0508C54.595 20.3077 52.771 20.623 51.3781 20.7512C49.9847 20.8789 48.6586 21.1021 48.4301 21.2472C48.2021 21.3918 47.1205 21.6029 46.027 21.7167C43.2398 22.0069 41.5136 22.3014 39.3376 22.8581C38.3034 23.1228 37.0872 23.223 36.6345 23.0808C36.1818 22.9386 35.8114 22.9994 35.8109 23.2163C35.81 23.4327 35.1988 23.6318 34.4519 23.6588C33.7054 23.6853 32.7008 23.8733 32.2203 24.0762C31.7394 24.2792 30.2478 24.4917 28.9052 24.5481C27.5631 24.6045 26.1782 24.8942 25.828 25.1921C25.4778 25.4905 24.7783 25.7455 24.2729 25.76C21.3362 25.8419 18.8071 26.2107 18.2971 26.6315C17.976 26.8971 17.0254 27.2649 16.1854 27.449C15.3449 27.6331 14.6566 27.9296 14.6557 28.107C14.6543 28.2848 13.967 28.4805 13.1279 28.5418C10.5457 28.7302 9.71547 29.0151 9.86543 29.6606C9.97026 30.1117 9.8424 30.1426 9.39534 29.7733C8.53741 29.0648 5.98715 29.555 4.84246 30.6487C4.31549 31.152 3.54218 31.5636 3.1238 31.5636C2.09476 31.5636 -0.540592 34.3006 0.098737 34.7055C0.370452 34.878 0.464942 35.4324 0.308401 35.938C-0.00609277 36.9537 0.501139 38.1737 0.966063 37.52C1.12778 37.293 1.73608 36.8341 2.31759 36.5006C3.25025 35.9655 3.3753 36.0017 3.3753 36.8057C3.3753 37.3181 3.79556 37.83 4.33476 37.9746C5.14286 38.1915 5.24346 38.0672 4.97174 37.1894C4.79405 36.6158 4.30938 35.8585 3.89428 35.5066C3.23427 34.946 3.28692 34.8997 4.31549 35.1364C4.96187 35.2849 5.64257 35.4097 5.82873 35.4131C6.01441 35.4169 6.0445 35.7452 5.89595 36.1429C5.74693 36.5406 5.85928 36.8659 6.14557 36.8659C6.43186 36.8659 6.66596 36.6558 6.66596 36.3988C6.66596 36.1424 7.00443 36.0653 7.41859 36.2282C7.83227 36.3911 8.35831 36.2215 8.58677 35.8517C8.92524 35.3037 9.00328 35.3259 9.00939 35.9708C9.01315 36.4066 9.38687 36.9228 9.83911 37.118C11.0736 37.6512 14.6125 37.5046 15.3345 36.89C15.8126 36.4832 16.1539 36.5406 16.7232 37.1248C17.3324 37.7495 17.4781 37.7673 17.4781 37.2159C17.4781 36.8404 17.8824 36.1578 18.377 35.6994C19.2509 34.8882 19.2645 34.9147 18.8809 36.6582C18.5852 38.0045 18.6571 38.6253 19.1695 39.1512C20.0858 40.0907 21.237 39.5672 21.246 38.2065C21.2511 37.4535 21.3743 37.3022 21.6361 37.7259C21.859 38.0855 22.3681 38.2074 22.8518 38.017C23.3097 37.8367 23.8244 37.9216 23.9955 38.2055C24.3481 38.7912 27.8202 37.8796 27.8202 37.2014C27.8202 36.9855 27.6308 36.9291 27.3995 37.0756C27.1677 37.2226 26.8556 37.0134 26.7047 36.6109C26.4819 36.0151 26.6032 35.9742 27.361 36.3897C27.8719 36.6702 28.2903 36.7502 28.2903 36.5671C28.2903 36.3844 28.7134 36.6273 29.2305 37.1069C30.0762 37.8917 30.1707 37.8989 30.1707 37.1817C30.1707 36.743 30.488 36.3839 30.8759 36.3839C31.2637 36.3839 32.0408 35.9125 32.603 35.336C33.2658 34.6563 33.5248 34.5551 33.3406 35.0482C32.9353 36.1299 33.452 36.4625 34.2558 35.6377C35.15 34.7214 35.8119 34.7479 35.8119 35.7009C35.8119 36.1207 36.0765 36.368 36.3995 36.2504C36.7229 36.1328 36.9316 35.5437 36.8639 34.9417C36.7553 33.9718 36.8305 33.9227 37.5221 34.5112C38.2277 35.1113 38.2817 35.0255 38.0805 33.6224C37.9028 32.3792 37.9818 32.1739 38.4759 32.5947C38.8477 32.9109 38.9798 33.5848 38.8073 34.289C38.5408 35.3769 38.6376 35.4497 40.2082 35.3413C41.9052 35.2241 42.5699 34.5247 42.1219 33.3278C41.9889 32.9726 42.1882 32.4202 42.5648 32.0996C43.1322 31.6171 43.3023 31.768 43.5637 32.9866C43.8035 34.1078 44.1358 34.4558 44.9655 34.4558C46.1304 34.4558 46.8234 33.4069 46.129 32.6949C45.8803 32.4399 46.1083 32.0056 46.6852 31.6364C47.2225 31.2922 47.5224 31.2435 47.3508 31.5279C47.1679 31.8311 47.4288 32.0456 47.9789 32.0456C48.496 32.0456 49.0497 31.8287 49.2096 31.5636C49.7991 30.5851 50.3947 31.1148 50.0924 32.3493C49.8573 33.309 49.941 33.5635 50.436 33.3968C50.7957 33.2758 51.1553 32.6125 51.2352 31.9232C51.3819 30.6612 52.5336 29.2682 53.0192 29.7661C53.1631 29.9131 52.9219 30.5952 52.4838 31.2807C52.0047 32.0307 51.8957 32.5277 52.2111 32.5277C52.4993 32.5277 52.7353 32.357 52.7353 32.1483C52.7353 31.9396 53.3854 31.7178 54.1794 31.6557C55.0655 31.5867 55.5093 31.7333 55.3269 32.0355C54.8723 32.7899 55.836 32.6202 56.473 31.8331C56.7818 31.4513 57.3154 31.2493 57.6581 31.3843C58.0008 31.5188 58.4032 31.4267 58.5527 31.1789C58.7017 30.9317 59.333 30.8285 59.9555 30.9505C60.5779 31.0724 61.2299 30.935 61.4048 30.6449C61.8128 29.9676 64.9577 29.9527 64.9577 30.628C64.9577 30.9085 65.1918 30.99 65.4781 30.8087C65.85 30.573 65.8354 30.3759 65.4278 30.1175C64.64 29.6181 65.5364 29.0918 67.9414 28.6411C69.2995 28.3861 70.0047 28.4752 70.479 28.9616C71.3971 29.903 72.1718 29.8032 71.799 28.7919C71.5142 28.0183 71.5513 28.0125 72.2484 28.7191C73.1332 29.6157 74.8288 29.4142 76.1032 28.2612C77.3057 27.1733 78.3075 26.9935 77.9577 27.9286C77.805 28.3374 77.8849 28.6714 78.135 28.6714C78.3855 28.6714 78.5905 28.4304 78.5905 28.1359C78.5905 27.7845 79.1574 27.7093 80.2358 27.9166C81.6644 28.1913 81.8812 28.1079 81.8812 27.2822C81.8812 26.282 84.1733 24.0941 84.6561 24.6335C84.8103 24.806 84.6726 25.0442 84.3492 25.1622C84.0262 25.2808 83.7615 25.773 83.7615 26.2565C83.7615 27.4471 85.3857 27.0022 85.9738 25.6505L86.4129 24.6417L87.369 25.6221C88.2303 26.5052 88.4493 26.536 89.5691 25.9345C90.6564 25.3507 90.813 25.3594 90.813 26.0048C90.813 26.4218 91.2219 26.7433 91.7532 26.7433C92.2703 26.7433 92.6933 26.5264 92.6933 26.2613C92.6933 25.9962 93.2222 25.7792 93.8686 25.7792C94.515 25.7792 95.0438 25.5392 95.0438 25.2456C95.0438 24.9521 95.3348 24.8268 95.6907 24.9665C96.0804 25.1198 96.3135 24.9212 96.2783 24.4662C96.2426 24.0092 96.6379 23.6757 97.2796 23.6207C98.2546 23.5373 98.2875 23.612 97.6895 24.5472C97.0897 25.4862 97.1259 25.5609 98.1535 25.5151C98.7665 25.4871 99.4086 25.3204 99.5807 25.1444C99.7528 24.968 100.154 25.0451 100.472 25.3155C101.25 25.9778 103.63 24.8774 103.303 24.0063C103.015 23.2341 103.593 23.17 104.301 23.896C104.669 24.2729 105.083 24.2753 105.759 23.9046C106.493 23.5017 106.761 23.545 106.97 24.1008C107.116 24.4937 107.627 24.8152 108.104 24.8152C109.329 24.8152 111.69 22.1708 111.328 21.2038C111.147 20.7179 111.227 20.5468 111.544 20.7473C111.822 20.9238 111.939 21.4979 111.806 22.0238C111.514 23.1662 111.884 24.3332 112.538 24.3332C112.796 24.3332 112.886 24.0078 112.737 23.6101C112.434 22.7998 113.613 22.5887 114.083 23.3691C114.242 23.6342 114.731 23.8338 115.168 23.813C115.657 23.7894 115.737 23.6814 115.375 23.532C115.052 23.398 114.803 22.8186 114.821 22.2445C114.853 21.2332 114.867 21.2303 115.258 22.164C115.48 22.6943 115.677 22.8442 115.695 22.4971C115.713 22.15 115.94 22.0001 116.198 22.164C116.457 22.3279 116.675 22.178 116.683 21.8309C116.692 21.4492 116.978 21.5798 117.407 22.1616C118.015 22.9868 118.179 23.0211 118.562 22.4026C118.808 22.0064 118.916 21.4217 118.802 21.104C118.684 20.771 118.87 20.6336 119.241 20.7796C120.009 21.0819 120.539 22.3139 120.168 22.9304C119.822 23.505 120.537 23.4862 122.092 22.8803C122.917 22.5583 123.254 22.1472 123.077 21.6752C122.929 21.2814 123.014 20.9589 123.264 20.9589C123.515 20.9589 123.72 21.1624 123.72 21.4111C123.72 22.4017 125.722 21.6564 126.148 20.5073C126.509 19.5341 126.676 19.4391 127.027 20.0113C127.264 20.3998 127.339 21.1137 127.192 21.5972C126.959 22.3655 127.123 22.4373 128.495 22.164C129.359 21.9919 130.441 21.8546 130.899 21.8579C131.357 21.8618 131.609 21.6608 131.459 21.4116C131.308 21.1628 131.498 20.9589 131.88 20.9589C132.261 20.9589 132.662 21.2298 132.771 21.5615C132.925 22.0315 133.14 22.0189 133.748 21.5046C134.176 21.1421 134.955 20.9599 135.478 21.1002C136.001 21.2405 136.729 21.0476 137.096 20.6712C137.505 20.2513 137.874 20.1723 138.051 20.4658C138.443 21.1171 140.586 20.8871 141.2 20.1284C141.578 19.6613 141.453 19.5129 140.684 19.5129C139.773 19.5129 139.729 19.403 140.253 18.4283C140.758 17.4907 140.86 17.458 141.01 18.1873C141.104 18.6515 141.575 19.0308 142.054 19.0308C142.534 19.0308 143.206 19.3167 143.548 19.6661C143.891 20.0175 145.433 20.3535 147 20.4186C149.428 20.5193 150.024 20.3665 151.184 19.3446C152.42 18.2552 154.155 18.0615 153.54 19.0814C153.397 19.3186 153.486 19.5129 153.739 19.5129C153.991 19.5129 154.304 19.2415 154.435 18.9103C154.624 18.4283 154.679 18.4283 154.709 18.9103C154.767 19.8522 157.905 19.6686 158.438 18.692C158.803 18.0239 159.017 17.9824 159.591 18.4712C160.155 18.9513 160.345 18.9465 160.541 18.4485C160.711 18.0147 160.903 17.9839 161.174 18.3473C161.387 18.6341 162.303 18.851 163.208 18.8293C164.598 18.7961 164.832 18.6332 164.718 17.779C164.644 17.2232 164.922 16.4804 165.335 16.128C165.999 15.5631 166.052 15.6325 165.785 16.7248C165.612 17.429 165.7 18.1 165.99 18.2837C166.27 18.4606 166.498 18.3685 166.498 18.0788C166.498 17.7722 167.039 17.6431 167.791 17.7698C168.502 17.8894 169.084 18.0234 169.084 18.0668C169.084 18.1101 169.693 18.248 170.438 18.3724C171.633 18.5719 171.761 18.4775 171.528 17.5655C171.283 16.6062 171.324 16.5874 172.091 17.2994C173.121 18.2548 174.02 18.2885 174.02 17.3722C174.02 16.9899 174.267 16.5209 174.57 16.329C174.94 16.0948 175.022 16.2432 174.819 16.7826C174.598 17.3731 174.778 17.5847 175.502 17.5847C176.283 17.5847 176.375 17.4483 175.949 16.9219C175.518 16.3893 175.645 16.2592 176.596 16.2592C177.288 16.2592 177.781 16.5349 177.781 16.9219C177.781 17.8098 178.551 17.7679 178.891 16.8617C179.039 16.464 179.432 16.156 179.764 16.1767C180.235 16.2066 180.239 16.2673 179.778 16.4578C179.455 16.5918 179.191 16.9075 179.191 17.1601C179.191 17.431 179.575 17.4078 180.131 17.1027C180.648 16.8188 181.071 16.7638 181.071 16.9808C181.071 17.9096 183.661 17.5119 185.139 16.356C186.649 15.1751 186.712 15.1654 186.712 16.1141C186.712 17.3582 188.343 17.4604 189.025 16.2592C189.291 15.7911 189.511 15.6836 189.519 16.0181C189.527 16.3676 190.146 16.6207 190.993 16.6207C192 16.6207 192.381 16.4255 192.219 15.9926C191.914 15.1775 195.187 14.8979 195.669 15.6981C195.856 16.008 196.255 16.1068 196.555 15.9164C196.952 15.6643 196.96 15.3982 196.584 14.9336C196.276 14.5523 196.245 14.1845 196.508 14.0177C196.75 13.8644 197.064 14.1956 197.206 14.7528L197.464 15.766L198.86 14.7475C200.493 13.555 201.016 13.46 200.657 14.4202C200.514 14.801 200.651 15.2175 200.959 15.3462C201.268 15.4754 201.108 15.5978 200.604 15.6185C200.045 15.6417 199.861 15.8248 200.134 16.0871C200.379 16.3237 201.261 16.4086 202.093 16.2755C203.298 16.0827 203.585 15.8229 203.504 15.0015C203.443 14.3923 203.641 14.0187 203.988 14.09C204.312 14.1565 204.579 13.9396 204.583 13.608C204.588 13.2065 204.742 13.2465 205.046 13.7285C205.297 14.1262 205.508 14.2346 205.516 13.9695C205.524 13.7044 205.708 13.7753 205.926 14.1267C206.143 14.4781 207.194 14.8859 208.262 15.0324C209.904 15.2585 210.352 15.1225 211.175 14.1527C212.055 13.1144 212.122 13.0985 211.887 13.9869C211.694 14.7176 211.868 14.9943 212.568 15.0714C214.044 15.2334 215.042 15.2218 216.563 15.0256C217.339 14.9254 218.608 14.8025 219.384 14.7528C220.671 14.6699 220.721 14.6048 219.961 14.0134C219.171 13.3998 219.178 13.3511 220.078 13.1096C220.692 12.9452 221.029 13.0893 221.029 13.5174C221.029 13.8987 221.319 14.0664 221.712 13.9117C222.087 13.7642 222.652 13.8066 222.967 14.0061C223.283 14.2062 224.404 14.3277 225.458 14.2766C226.513 14.2255 228.38 14.1353 229.608 14.0765C231.026 14.0086 231.841 13.7492 231.841 13.367C231.841 12.9997 232.484 12.7644 233.487 12.7644C234.392 12.7644 235.132 12.9944 235.132 13.2749C235.132 13.5554 235.353 13.6456 235.623 13.4745C235.893 13.3033 236.417 13.4219 236.788 13.7377C237.255 14.1348 237.864 14.1734 238.765 13.862C239.482 13.6147 240.884 13.5005 241.881 13.608C243.16 13.7458 243.597 13.6408 243.362 13.2518C243.158 12.9129 243.309 12.7587 243.756 12.8526C244.155 12.9365 244.822 12.5716 245.237 12.0414C245.982 11.0908 245.989 11.0923 245.702 12.1619C245.493 12.9394 245.612 13.2465 246.12 13.2465C246.51 13.2465 246.969 13.0146 247.139 12.7317C247.31 12.4482 247.746 12.333 248.107 12.4752C248.472 12.6189 248.765 12.442 248.765 12.078C248.765 10.8344 250.15 10.831 250.943 12.0727C251.578 13.0662 252.041 13.258 253.581 13.165C254.632 13.1014 255.555 12.7664 255.693 12.3986C255.828 12.039 256.254 11.8698 256.642 12.0221C257.029 12.1744 257.673 12.024 258.073 11.6881C258.698 11.1631 258.762 11.2292 258.527 12.1619C258.377 12.7582 258.317 13.2465 258.392 13.2465C258.87 13.2465 261.2 11.7546 261.543 11.2297C261.803 10.8291 261.849 11.0711 261.664 11.8857L261.373 13.1766L265.485 12.9915C267.746 12.8893 269.806 12.5909 270.063 12.3277C270.32 12.0645 270.657 11.0426 270.814 10.0569C270.97 9.07112 271.363 8.17358 271.688 8.06272C272.141 7.9075 272.165 8.16442 271.79 9.17476C271.522 9.89684 271.407 10.5948 271.535 10.7254C271.662 10.8561 271.555 11.3685 271.297 11.8635C270.932 12.5615 270.989 12.7644 271.548 12.7644C271.945 12.7644 272.27 12.561 272.27 12.3123C272.27 12.0636 272.64 11.8838 273.092 11.9132C273.545 11.9421 274.369 11.8124 274.923 11.6254C275.528 11.4215 276.186 11.5329 276.569 11.9045C277.6 12.9062 279.037 12.6314 279.636 11.3183L280.185 10.1133L280.223 11.4548C280.261 12.7895 280.274 12.7948 282.964 12.5634C284.451 12.4357 286.658 12.32 287.869 12.3065C289.701 12.2863 290.124 12.1079 290.393 11.2398C290.679 10.3138 290.765 10.2873 291.154 11.0021C291.497 11.6293 291.795 11.6958 292.509 11.3044C293.138 10.9597 293.424 10.9587 293.424 11.3015C293.424 11.5757 293.741 11.8004 294.129 11.8004C294.517 11.8004 294.834 12.0091 294.834 12.2641C294.834 13.003 303.609 12.5331 304.541 11.744C305.188 11.1974 305.367 11.1921 305.538 11.7151C305.691 12.1812 306.078 12.0515 306.975 11.233C307.651 10.617 307.915 10.4979 307.563 10.9684C306.769 12.0284 307.247 12.6386 308.221 11.81C308.803 11.314 308.94 11.3236 308.952 11.8621C308.962 12.3065 309.191 12.2193 309.652 11.5945C310.029 11.0836 310.478 10.8093 310.649 10.9843C310.82 11.1598 311.258 10.9269 311.623 10.4671C312.11 9.85442 312.352 9.79272 312.532 10.2367C312.668 10.5698 313.025 10.7139 313.325 10.5563C313.627 10.3991 313.368 10.6922 312.751 11.2075C312.028 11.8119 311.814 12.2617 312.15 12.4743C312.436 12.6555 313.138 12.253 313.709 11.5791C314.812 10.2781 316.26 9.89732 315.84 11.0185C315.596 11.6712 316.316 12.7644 316.99 12.7644C317.179 12.7644 317.427 12.2761 317.541 11.6799C317.745 10.6189 317.756 10.617 318.077 11.5917C318.374 12.4964 318.736 12.5789 322.015 12.4849C324 12.428 325.678 12.3359 325.743 12.2805C326.098 11.9744 330.021 12.0592 330.971 12.3933C331.683 12.6434 332.334 12.5745 332.77 12.2034C333.224 11.8172 333.56 11.7874 333.77 12.1147C334.353 13.0223 336.14 13.1824 336.773 12.3836C337.288 11.7329 337.256 11.6664 336.555 11.9358C336.045 12.132 335.732 12.0226 335.732 11.6466C335.732 10.5683 337.501 10.8315 337.802 11.9546C338.037 12.8348 338.158 12.8883 338.546 12.2824C338.8 11.8847 339.012 11.8071 339.016 12.1103C339.027 12.9351 340.382 13.3086 341.379 12.7615C341.884 12.4844 342.367 12.4627 342.516 12.7104C342.828 13.2272 346.591 13.0903 347.475 12.5297C347.891 12.2665 347.988 12.319 347.767 12.6868C347.552 13.0435 347.818 13.2325 348.517 13.219C349.559 13.1987 352.891 13.593 352.891 13.7367C352.891 13.7753 353.896 13.8741 355.124 13.957C356.352 14.0399 357.358 13.9681 357.359 13.7974C357.36 13.6273 358.312 13.4682 359.474 13.4451C361.03 13.4132 361.588 13.5873 361.588 14.1035C361.588 14.5619 361.905 14.7195 362.505 14.559C363.01 14.4236 363.522 14.561 363.643 14.8642C363.765 15.1674 363.881 15.0203 363.901 14.5378C363.935 13.7396 364.005 13.7285 364.677 14.4173C365.373 15.1307 365.849 15.2344 369.347 15.4354C370.123 15.4802 371.216 15.6653 371.775 15.847C372.334 16.0292 372.922 15.9603 373.082 15.6947C373.267 15.3876 373.784 15.3717 374.501 15.6508C375.286 15.9569 375.698 15.915 375.857 15.512C375.983 15.1939 376.103 15.3129 376.123 15.7771C376.144 16.2413 376.319 16.6289 376.513 16.639C377.997 16.7156 380.773 17.2864 381.449 17.6537C382.119 18.0176 382.273 17.8966 382.279 16.9991C382.285 16.1112 382.375 16.0379 382.742 16.6207C383.117 17.216 383.199 17.2232 383.205 16.6607C383.209 16.2852 383.346 16.115 383.509 16.2823C383.672 16.4496 384.201 16.37 384.684 16.1049C385.696 15.5496 385.726 15.6359 385.104 17.3124C384.745 18.2789 384.791 18.5488 385.311 18.5488C385.678 18.5488 386.102 18.3415 386.255 18.088C386.567 17.5703 387.979 17.9776 388.466 18.7257C388.641 18.9937 389.354 19.2921 390.051 19.3875C390.748 19.4835 391.62 19.871 391.989 20.2494C392.529 20.8033 392.839 20.823 393.577 20.3501C394.082 20.0272 394.494 19.6175 394.494 19.4396C394.494 18.9947 395.461 19.2005 396.727 19.9144C397.533 20.3685 397.785 20.3742 397.785 19.937C397.785 19.5938 398.163 19.7148 398.728 20.2388C400.126 21.5359 400.439 20.7179 399.33 18.664C398.582 17.2786 398.46 16.585 398.801 15.6653C399.107 14.842 399.082 14.4125 398.72 14.2891C398.431 14.1903 397.994 13.5689 397.749 12.9081C397.504 12.2477 396.897 11.5984 396.401 11.4654C395.906 11.3323 395.395 10.9457 395.269 10.6064C395.016 9.93155 386.387 7.12276 385.615 7.46403C385.515 7.50838 385.269 7.27315 385.069 6.94151C384.87 6.61036 382.73 5.95914 380.316 5.49494C377.901 5.03026 375.397 4.52365 374.75 4.36844C374.104 4.21322 372.412 3.96546 370.99 3.81844C369.568 3.67094 367.994 3.42703 367.493 3.27616C366.992 3.1248 365.405 2.93729 363.967 2.8592C362.529 2.78063 360.824 2.57384 360.177 2.39935C359.531 2.22485 357.204 2.00746 355.006 1.91587C352.809 1.82429 351.011 1.71824 351.011 1.68064C351.011 1.64304 350.111 1.52832 349.013 1.42613C347.788 1.31237 347.015 1.44155 347.015 1.75921C347.015 2.11061 346.803 2.09808 346.359 1.72016C345.999 1.41311 343.989 1.12727 341.893 1.08533C339.797 1.04291 338.083 0.8877 338.083 0.740199C338.083 0.593179 334.645 0.414829 330.444 0.343971C326.242 0.273594 322.488 0.20611 322.1 0.194059C321.712 0.182008 320.02 0.249491 318.339 0.343487C316.658 0.437483 314.754 0.379159 314.108 0.213822C313.462 0.048486 312.246 0.0706584 311.405 0.262506C310.564 0.454836 309.877 0.432663 309.877 0.212857C309.877 -0.00694875 309.296 -0.0662376 308.584 0.0807815C306.762 0.457247 290.26 0.537265 288.148 0.18008C287.186 0.0171542 286.292 -0.00646556 286.161 0.127057ZM327.734 9.97782C327.738 10.1682 327.437 10.2044 327.065 10.0583C326.694 9.91226 326.512 9.46687 326.661 9.06871C326.881 8.48015 327.006 8.46521 327.329 8.98821C327.548 9.34202 327.73 9.78694 327.734 9.97782ZM237.519 9.26972C237.539 9.46832 237.625 10.012 237.712 10.4772C237.799 10.9424 237.703 11.2166 237.498 11.087C236.937 10.7317 236.568 8.9082 237.057 8.9082C237.291 8.9082 237.499 9.07112 237.519 9.26972ZM292.014 9.12077C292.014 9.23791 291.802 9.46735 291.544 9.63124C291.285 9.79513 291.073 9.69921 291.073 9.41866C291.073 9.13812 291.285 8.9082 291.544 8.9082C291.802 8.9082 292.014 9.00364 292.014 9.12077ZM273.445 10.8363C273.605 11.1014 273.511 11.3183 273.238 11.3183C272.964 11.3183 272.74 11.1014 272.74 10.8363C272.74 10.5712 272.833 10.3543 272.947 10.3543C273.061 10.3543 273.285 10.5712 273.445 10.8363ZM232.312 11.5309C232.312 11.6481 232.1 11.8775 231.841 12.0414C231.583 12.2053 231.371 12.1094 231.371 11.8288C231.371 11.5483 231.583 11.3183 231.841 11.3183C232.1 11.3183 232.312 11.4138 232.312 11.5309ZM235.005 11.6095C234.849 11.7695 234.443 11.7869 234.104 11.6476C233.729 11.4938 233.84 11.3796 234.388 11.3564C234.883 11.3357 235.161 11.4495 235.005 11.6095ZM236.777 11.8004C236.937 12.0655 236.726 12.2824 236.307 12.2824C235.889 12.2824 235.677 12.0655 235.837 11.8004C235.997 11.5353 236.209 11.3183 236.307 11.3183C236.406 11.3183 236.618 11.5353 236.777 11.8004ZM241.713 11.744C241.713 11.9782 241.237 12.293 240.656 12.4434C239.634 12.7071 239.629 12.6926 240.51 12.0173C241.575 11.2022 241.713 11.1704 241.713 11.744ZM224.79 12.013C224.79 12.1301 224.578 12.3595 224.32 12.5234C224.061 12.6873 223.85 12.5914 223.85 12.3108C223.85 12.0303 224.061 11.8004 224.32 11.8004C224.578 11.8004 224.79 11.8958 224.79 12.013ZM203.038 12.5736C202.882 12.7336 202.476 12.7509 202.138 12.6116C201.762 12.4579 201.874 12.3436 202.421 12.3205C202.917 12.2998 203.194 12.4135 203.038 12.5736ZM208.188 14.3011C208.038 14.6853 207.926 14.5711 207.904 14.0095C207.884 13.5015 207.994 13.2171 208.151 13.3771C208.307 13.5371 208.324 13.9531 208.188 14.3011ZM373.34 14.4515C373.34 15.6643 372.601 15.6103 372.503 14.3903C372.447 13.7005 372.604 13.3188 372.873 13.4894C373.13 13.6523 373.34 14.0852 373.34 14.4515ZM178.016 14.6926C178.175 14.9577 178.082 15.1746 177.808 15.1746C177.535 15.1746 177.31 14.9577 177.31 14.6926C177.31 14.4274 177.404 14.2105 177.518 14.2105C177.632 14.2105 177.856 14.4274 178.016 14.6926ZM203.945 14.9582C204.089 15.3423 204.395 15.6566 204.626 15.6566C205.302 15.6566 205.109 14.8203 204.365 14.5277C203.909 14.3484 203.77 14.4911 203.945 14.9582ZM387.405 14.9803C386.88 15.6291 386.907 15.822 387.582 16.209C388.709 16.8559 388.634 17.7563 387.504 17.1364C387.022 16.8713 386.459 16.8096 386.254 16.9991C386.05 17.1885 386.022 16.9465 386.193 16.4606C386.363 15.9752 386.503 15.27 386.503 14.894C386.503 14.5181 386.846 14.2105 387.265 14.2105C387.911 14.2105 387.932 14.3291 387.405 14.9803ZM152.716 16.2293C152.567 16.6134 152.455 16.4992 152.433 15.9376C152.412 15.4296 152.523 15.1452 152.679 15.3052C152.835 15.4653 152.852 15.8812 152.716 16.2293ZM378.511 15.3872C378.511 15.5043 378.3 15.7337 378.041 15.8976C377.782 16.0615 377.571 15.9656 377.571 15.6851C377.571 15.4045 377.782 15.1746 378.041 15.1746C378.3 15.1746 378.511 15.27 378.511 15.3872ZM379.921 15.6566C379.921 15.9217 379.71 16.1386 379.451 16.1386C379.193 16.1386 378.981 15.9217 378.981 15.6566C378.981 15.3915 379.193 15.1746 379.451 15.1746C379.71 15.1746 379.921 15.3915 379.921 15.6566ZM151.455 16.6207C151.455 17.1509 151.263 17.5847 151.029 17.5847C150.795 17.5847 150.714 17.1509 150.849 16.6207C150.984 16.0904 151.176 15.6566 151.275 15.6566C151.374 15.6566 151.455 16.0904 151.455 16.6207ZM154.276 16.6207C154.276 16.8858 154.183 17.1027 154.068 17.1027C153.954 17.1027 153.73 16.8858 153.571 16.6207C153.411 16.3556 153.504 16.1386 153.778 16.1386C154.052 16.1386 154.276 16.3556 154.276 16.6207ZM149.896 17.6754C149.746 18.0595 149.635 17.9453 149.612 17.3837C149.592 16.8757 149.703 16.5913 149.859 16.7513C150.015 16.9113 150.032 17.3273 149.896 17.6754ZM393.554 19.1913C393.554 19.5452 393.237 19.8344 392.849 19.8344C392.105 19.8344 391.932 19.4083 392.457 18.8703C392.976 18.3382 393.554 18.5073 393.554 19.1913ZM86.3278 26.2936C86.1571 26.576 86.1186 26.9111 86.2418 27.0373C86.3649 27.1636 86.591 26.9323 86.7443 26.523C87.0621 25.6737 86.7913 25.5243 86.3278 26.2936ZM40.1287 32.6323C39.7917 32.9779 39.5726 33.0063 39.5726 32.7046C39.5726 32.4303 39.7136 32.0615 39.8862 31.8851C40.0582 31.7082 40.3088 31.6754 40.4423 31.8128C40.5758 31.9497 40.4348 32.3185 40.1287 32.6323ZM13.7174 35.6021C13.7174 35.7018 13.3474 36.0817 12.8947 36.4456C12.1492 37.0448 12.1327 37.0279 12.717 36.2634C13.3314 35.4603 13.7174 35.2053 13.7174 35.6021ZM20.6395 37.83C20.5615 38.8914 19.8286 39.1816 19.8286 38.1515C19.8286 37.5765 20.2456 36.8659 20.5831 36.8659C20.6532 36.8659 20.6786 37.2998 20.6395 37.83Z" fill="#FB9E44"/>
</svg>
